{"title":"Dum Laga Ke Haisha 2015 Hindi Movies DVDRip x264 +Sample ~ â˜»rDXâ˜»","uid":11751276,"size":743581594,"categoryP":"video","categoryS":"movies","magnet":"?xt=urn:btih:18dfaada028051995bb2f42981a25652b21c405e&amp;dn=Dum+Laga+Ke+Haisha+2015+Hindi+Movies+DVDRip+x264+%2BSample+%7E+%E2%98%BBrDX%E2%98%BB&amp;tr=udp%3A%2F%2Ftracker.openbittorrent.com%3A80&amp;tr=udp%3A%2F%2Fopen.demonii.com%3A1337&amp;tr=udp%3A%2F%2Ftracker.coppersurfer.tk%3A6969&amp;tr=udp%3A%2F%2Fexodus.desync.com%3A6969","seeders":23,"leechers":4,"uploader":"basicssom","files":2,"time":1426226015,"description":"----------------------------------------------------------------\nDum Laga Ke Haisha 2015 Hindi Movies DVDRip x264 AAC with Sample ~ â˜»rDXâ˜»\n\nSCREEN SHOTS &amp; POSTER:\n &lt;a href=&quot;\nhttp://planethost.co.nr/2015/3/DumLagaKeHaisha/11.html&quot; rel=&quot;nofollow&quot; target=&quot;_NEW&quot;&gt;\nhttp://planethost.co.nr/2015/3/DumLagaKeHaisha/11.html&lt;/a&gt; &lt;a href=&quot;\nhttp://planethost.co.nr/2015/3/DumLagaKeHaisha/1.html&quot; rel=&quot;nofollow&quot; target=&quot;_NEW&quot;&gt;\nhttp://planethost.co.nr/2015/3/DumLagaKeHaisha/1.html&lt;/a&gt; &lt;a href=&quot;\nhttp://planethost.co.nr/2015/3/DumLagaKeHaisha/2.html&quot; rel=&quot;nofollow&quot; target=&quot;_NEW&quot;&gt;\nhttp://planethost.co.nr/2015/3/DumLagaKeHaisha/2.html&lt;/a&gt; &lt;a href=&quot;\nhttp://planethost.co.nr/2015/3/DumLagaKeHaisha/3.html&quot; rel=&quot;nofollow&quot; target=&quot;_NEW&quot;&gt;\nhttp://planethost.co.nr/2015/3/DumLagaKeHaisha/3.html&lt;/a&gt; &lt;a href=&quot;\nhttp://planethost.co.nr/2015/3/DumLagaKeHaisha/4.html&quot; rel=&quot;nofollow&quot; target=&quot;_NEW&quot;&gt;\nhttp://planethost.co.nr/2015/3/DumLagaKeHaisha/4.html&lt;/a&gt; &lt;a href=&quot;\nhttp://planethost.co.nr/2015/3/DumLagaKeHaisha/5.html&quot; rel=&quot;nofollow&quot; target=&quot;_NEW&quot;&gt;\nhttp://planethost.co.nr/2015/3/DumLagaKeHaisha/5.html&lt;/a&gt; &lt;a href=&quot;\nhttp://planethost.co.nr/2015/3/DumLagaKeHaisha/6.html&quot; rel=&quot;nofollow&quot; target=&quot;_NEW&quot;&gt;\nhttp://planethost.co.nr/2015/3/DumLagaKeHaisha/6.html&lt;/a&gt; &lt;a href=&quot;\nhttp://planethost.co.nr/2015/3/DumLagaKeHaisha/7.html&quot; rel=&quot;nofollow&quot; target=&quot;_NEW&quot;&gt;\nhttp://planethost.co.nr/2015/3/DumLagaKeHaisha/7.html&lt;/a&gt; &lt;a href=&quot;\nhttp://planethost.co.nr/2015/3/DumLagaKeHaisha/8.html&quot; rel=&quot;nofollow&quot; target=&quot;_NEW&quot;&gt;\nhttp://planethost.co.nr/2015/3/DumLagaKeHaisha/8.html&lt;/a&gt; &lt;a href=&quot;\nhttp://planethost.co.nr/2015/3/DumLagaKeHaisha/9.html&quot; rel=&quot;nofollow&quot; target=&quot;_NEW&quot;&gt;\nhttp://planethost.co.nr/2015/3/DumLagaKeHaisha/9.html&lt;/a&gt; &lt;a href=&quot;\nhttp://planethost.co.nr/2015/3/DumLagaKeHaisha/10.html&quot; rel=&quot;nofollow&quot; target=&quot;_NEW&quot;&gt;\nhttp://planethost.co.nr/2015/3/DumLagaKeHaisha/10.html&lt;/a&gt;\n\nFormat                                   : Matroska\nFormat version                           : Version 4 / Version 2\nFile size                                : 704 MiB\nDuration                                 : 1h 46mn\nOverall bit rate                         : 926 Kbps\nMovie name                               : Dum Laga Ke Haisha 2015 Hindi Movies DVDRip x264 AAC ~ rDX ~\n\nVideo\nID                                       : 1\nFormat                                   : AVC\nFormat/Info                              : Advanced Video Codec\nFormat profile                           : &lt;a class=&quot;__cf_email__&quot; href=&quot;/cdn-cgi/l/email-protection&quot; data-cfemail=&quot;6528040c0b2529564b54&quot;&gt;[email&amp;#160;protected]&lt;/a&gt;&lt;script cf-hash='f9e31' type=&quot;text/javascript&quot;&gt;\n/* &lt;![CDATA[ */!function(){try{var t=&quot;currentScript&quot;in document?document.currentScript:function(){for(var t=document.getElementsByTagName(&quot;script&quot;),e=t.length;e--;)if(t[e].getAttribute(&quot;cf-hash&quot;))return t[e]}();if(t&amp;&amp;t.previousSibling){var e,r,n,i,c=t.previousSibling,a=c.getAttribute(&quot;data-cfemail&quot;);if(a){for(e=&quot;&quot;,r=parseInt(a.substr(0,2),16),n=2;a.length-n;n+=2)i=parseInt(a.substr(n,2),16)^r,e+=String.fromCharCode(i);e=document.createTextNode(e),c.parentNode.replaceChild(e,c)}}}catch(u){}}();/* ]]&gt; */&lt;/script&gt;\nFormat settings, CABAC                   : Yes\nFormat settings, ReFrames                : 3 frames\nCodec ID                                 : V_MPEG4/ISO/AVC\nDuration                                 : 1h 46mn\nBit rate                                 : 838 Kbps\nWidth                                    : 640 pixels\nHeight                                   : 288 pixels\nDisplay aspect ratio                     : 2.222\nFrame rate mode                          : Constant\nFrame rate                               : 25.000 fps\nColor space                              : YUV\nChroma subsampling                       : 4:2:0\nBit depth                                : 8 bits\nScan type                                : Progressive\nBits/(Pixel*Frame)                       : 0.182\nStream size                              : 629 MiB (89%)\nTitle                                    : ~ rDX ~\nWriting library                          : x264\nDefault                                  : Yes\nForced                                   : No\nColor primaries                          : BT.601 NTSC\nTransfer characteristics                 : BT.601\nMatrix coefficients                      : BT.601\n\nAudio\nID                                       : 2\nFormat                                   : MPEG Audio\nFormat version                           : Version 1\nFormat profile                           : Layer 3\nMode                                     : Joint stereo\nMode extension                           : MS Stereo\nCodec ID                                 : A_MPEG/L3\nCodec ID/Hint                            : MP3\nDuration                                 : 1h 46mn\nBit rate mode                            : Constant\nBit rate                                 : 80.0 Kbps\nChannel(s)                               : 2 channels\nSampling rate                            : 32.0 KHz\nCompression mode                         : Lossy\nStream size                              : 60.8 MiB (9%)\nTitle                                    : ~ rDX ~\nWriting library                          : LAME3.99r\nEncoding settings                        : -m j -V 4 -q 2 -lowpass 13.5 -b 80\nDefault                                  : Yes\nForced                                   : No","torrent":{"xt":"urn:btih:18dfaada028051995bb2f42981a25652b21c405e","amp;dn":"Dum+Laga+Ke+Haisha+2015+Hindi+Movies+DVDRip+x264+%2BSample+%7E+%E2%98%BBrDX%E2%98%BB","amp;tr":["udp%3A%2F%2Ftracker.openbittorrent.com%3A80","udp%3A%2F%2Fopen.demonii.com%3A1337","udp%3A%2F%2Ftracker.coppersurfer.tk%3A6969","udp%3A%2F%2Fexodus.desync.com%3A6969"],"infoHash":"18dfaada028051995bb2f42981a25652b21c405e","infoHashBuffer":{"type":"Buffer","data":[24,223,170,218,2,128,81,153,91,178,244,41,129,162,86,82,178,28,64,94]},"announce":[],"urlList":[]}}